HIERARCHY
ROOT Hips
{
	OFFSET 41.736401 -5.095396 100.235001
	CHANNELS 6 Xposition Yposition Zposition Xrotation Yrotation Zrotation
	JOINT spine
	{
		OFFSET 0.000000 -0.507025 8.817047
		CHANNELS 3 Xrotation Yrotation Zrotation
		JOINT spine1
		{
			OFFSET 0.000000 -0.000002 10.776596
			CHANNELS 3 Xrotation Yrotation Zrotation
			JOINT spine2
			{
				OFFSET 0.000000 -0.000001 10.325897
				CHANNELS 3 Xrotation Yrotation Zrotation
				JOINT Neck
				{
					OFFSET 0.000000 -1.263955 26.511002
					CHANNELS 3 Xrotation Yrotation Zrotation
					JOINT Head
					{
						OFFSET 0.000000 -0.000001 8.009659
						CHANNELS 3 Xrotation Yrotation Zrotation
						End Site
						{
							OFFSET 0.000000 6.393857 19.387894
						}
					}
				}
				JOINT RightShoulder
				{
					OFFSET -4.347950 0.605420 11.151199
					CHANNELS 3 Xrotation Yrotation Zrotation
					JOINT RightArm
					{
						OFFSET 0.000000 -0.000002 14.625793
						CHANNELS 3 Xrotation Yrotation Zrotation
						JOINT RightArmRoll
						{
							OFFSET 0.000000 -0.000001 7.383408
							CHANNELS 3 Xrotation Yrotation Zrotation
							JOINT RightForeArm
							{
								OFFSET 0.000000 -0.000003 21.505203
								CHANNELS 3 Xrotation Yrotation Zrotation
								JOINT RightForeArmRoll
								{
									OFFSET 0.000000 -0.000001 8.285324
									CHANNELS 3 Xrotation Yrotation Zrotation
									JOINT RightHand
									{
										OFFSET 0.000000 -0.000003 16.626801
										CHANNELS 3 Xrotation Yrotation Zrotation
										End Site
										{
											OFFSET 0.000000 0.000000 0.100006
										}
									}
								}
							}
						}
					}
				}
				JOINT LeftShoulder
				{
					OFFSET 4.347950 0.605420 11.151199
					CHANNELS 3 Xrotation Yrotation Zrotation
					JOINT LeftArm
					{
						OFFSET 0.000000 -0.000002 14.625793
						CHANNELS 3 Xrotation Yrotation Zrotation
						JOINT LeftArmRoll
						{
							OFFSET 0.000000 -0.000001 7.383408
							CHANNELS 3 Xrotation Yrotation Zrotation
							JOINT LeftForeArm
							{
								OFFSET 0.000000 -0.000003 21.505203
								CHANNELS 3 Xrotation Yrotation Zrotation
								JOINT LeftForeArmRoll
								{
									OFFSET 0.000000 -0.000001 8.285324
									CHANNELS 3 Xrotation Yrotation Zrotation
									JOINT LeftHand
									{
										OFFSET 0.000000 -0.000003 16.626801
										CHANNELS 3 Xrotation Yrotation Zrotation
										End Site
										{
											OFFSET 0.000000 0.000000 0.100006
										}
									}
								}
							}
						}
					}
				}
			}
		}
	}
	JOINT RightUpLeg
	{
		OFFSET -7.815102 1.202170 -1.433090
		CHANNELS 3 Xrotation Yrotation Zrotation
		JOINT RightUpLegRoll
		{
			OFFSET 0.000000 -0.000003 19.495895
			CHANNELS 3 Xrotation Yrotation Zrotation
			JOINT RightLeg
			{
				OFFSET 0.000000 0.000004 -24.142700
				CHANNELS 3 Xrotation Yrotation Zrotation
				JOINT RightLegRoll
				{
					OFFSET 0.000000 -0.000004 24.221703
					CHANNELS 3 Xrotation Yrotation Zrotation
					JOINT RightFoot
					{
						OFFSET 0.000000 -0.000003 20.160500
						CHANNELS 3 Xrotation Yrotation Zrotation
						JOINT RightToeBase
						{
							OFFSET 0.000000 -0.000003 16.853195
							CHANNELS 3 Xrotation Yrotation Zrotation
							End Site
							{
								OFFSET 0.007145 0.940778 8.161865
							}
						}
					}
				}
			}
		}
	}
	JOINT LeftUpLeg
	{
		OFFSET 7.815102 1.202170 -1.433090
		CHANNELS 3 Xrotation Yrotation Zrotation
		JOINT LeftUpLegRoll
		{
			OFFSET 0.000000 -0.000003 19.496002
			CHANNELS 3 Xrotation Yrotation Zrotation
			JOINT LeftLeg
			{
				OFFSET 0.000000 -0.000004 24.142593
				CHANNELS 3 Xrotation Yrotation Zrotation
				JOINT LeftLegRoll
				{
					OFFSET 0.000000 -0.000004 24.445602
					CHANNELS 3 Xrotation Yrotation Zrotation
					JOINT LeftFoot
					{
						OFFSET 0.000000 -0.000003 19.936600
						CHANNELS 3 Xrotation Yrotation Zrotation
						JOINT LeftToeBase
						{
							OFFSET 0.000000 -0.000003 16.853195
							CHANNELS 3 Xrotation Yrotation Zrotation
							End Site
							{
								OFFSET -0.032013 0.940778 8.161865
							}
						}
					}
				}
			}
		}
	}
}
MOTION
Frames: 7
Frame Time: 0.041667
41.733894 -8.850192 118.036011 4.827953 1.171567 8.681852 -2.481641 -0.056210 0.323429 -0.952118 -0.120588 0.644930 0.692915 -0.112855 0.646327 -9.409966 3.649450 -2.473787 13.343062 -0.473804 -3.264674 -16.193725 -42.733099 -18.812050 64.688851 -119.974773 -2.816632 -0.000003 0.000000 -0.000003 94.634006 20.275422 -22.436920 -0.000001 -0.000016 -3.009680 -5.000239 -7.998771 0.000141 -8.446433 47.222558 9.113387 46.293110 112.428336 -1.008867 0.000003 0.000015 0.000000 84.717042 -5.846843 8.639016 -0.000002 -0.000007 2.999998 -5.000230 7.998772 -0.000163 -11.807877 -173.559027 5.522536 -179.999991 0.000005 -1.289999 151.116651 -6.389429 -2.828037 -0.000004 -0.000001 0.459777 68.661699 6.792988 2.409599 25.456962 -7.355614 -0.000001 -16.069345 175.318457 -0.294904 -0.000003 -0.000004 -1.085910 -26.069333 3.763489 1.747910 -0.000001 0.000001 -0.369808 69.001938 -6.830630 -2.285713 25.456948 7.355621 -0.000005 
41.744995 -8.816380 117.991005 4.877224 1.210909 8.701962 -2.478742 -0.056640 0.325332 -0.945946 -0.121372 0.648725 0.699086 -0.113593 0.650130 -9.501749 3.638536 -2.500806 13.279670 -0.479914 -3.291944 -16.244019 -42.707554 -18.877060 64.953432 -120.025944 -2.652579 -0.000002 0.000000 -0.000001 94.598953 20.256191 -22.392758 -0.000003 -0.000013 -3.009682 -5.000239 -7.998771 0.000139 -8.407255 47.241461 9.065474 46.561014 112.368059 -1.312516 0.000003 0.000014 0.000000 84.649157 -5.797097 8.575878 -0.000004 -0.000011 2.999999 -5.000228 7.998771 -0.000162 -11.902885 -173.627835 5.472719 -179.999991 0.000005 -1.285996 151.147305 -6.387779 -2.824701 -0.000002 -0.000001 0.458331 68.671337 6.793180 2.409547 25.456960 -7.355613 -0.000000 -16.178514 175.281642 -0.305371 -0.000004 -0.000004 -1.085838 -26.122514 3.761513 1.751260 0.000001 0.000001 -0.370888 68.993257 -6.830197 -2.287168 25.456955 7.355622 -0.000006 
41.714294 -8.791509 117.917007 4.925124 1.250056 8.719338 -2.475331 -0.057076 0.326350 -0.938894 -0.122179 0.650753 0.706139 -0.114374 0.652165 -9.598479 3.630060 -2.522994 13.223784 -0.488324 -3.314312 -16.286922 -42.678867 -18.932338 65.177661 -120.080627 -2.501851 -0.000000 -0.000001 0.000000 94.547577 20.225249 -22.325399 -0.000004 -0.000015 -3.009678 -5.000237 -7.998771 0.000141 -8.379509 47.262320 9.032091 46.826418 112.306827 -1.621816 0.000002 0.000015 0.000002 84.577536 -5.745081 8.509508 -0.000005 -0.000008 3.000001 -5.000230 7.998776 -0.000160 -11.998665 -173.697598 5.419035 -179.999991 0.000004 -1.281994 151.180268 -6.382759 -2.819198 -0.000003 -0.000001 0.456890 68.680243 6.793402 2.409544 25.456953 -7.355613 -0.000000 -16.285213 175.243830 -0.316318 -0.000004 -0.000004 -1.085730 -26.173100 3.760121 1.754535 -0.000000 0.000001 -0.371901 68.984911 -6.829815 -2.288712 25.456947 7.355620 -0.000006 
41.692295 -8.754520 117.861008 4.971410 1.288972 8.733497 -2.471342 -0.057525 0.326342 -0.930834 -0.123021 0.650722 0.714198 -0.115217 0.652148 -9.701287 3.624185 -2.539519 13.176904 -0.499218 -3.330925 -16.321077 -42.646656 -18.976217 65.356578 -120.139326 -2.366264 -0.000003 -0.000000 -0.000000 94.478284 20.181641 -22.233051 -0.000004 -0.000011 -3.009676 -5.000236 -7.998773 0.000143 -8.365036 47.284802 9.015544 47.090937 112.243859 -1.939023 0.000002 0.000015 0.000001 84.501810 -5.690938 8.440103 -0.000003 -0.000009 3.000002 -5.000225 7.998773 -0.000165 -12.095278 -173.770299 5.361631 -179.999991 0.000004 -1.276994 151.215020 -6.373430 -2.813114 -0.000005 -0.000001 0.455467 68.688590 6.793525 2.409551 25.456962 -7.355614 0.000000 -16.389051 175.205076 -0.328079 -0.000004 -0.000004 -1.085579 -26.221013 3.759513 1.757776 -0.000000 0.000002 -0.372845 68.977213 -6.829465 -2.290023 25.456945 7.355626 -0.000006 
41.665291 -8.727499 117.787994 5.015959 1.327945 8.745357 -2.466872 -0.058123 0.325428 -0.921969 -0.124186 0.648876 0.723064 -0.116404 0.650315 -9.806775 3.620489 -2.551093 13.135530 -0.511235 -3.342749 -16.347433 -42.610296 -19.009776 65.492649 -120.202027 -2.244432 -0.000005 -0.000003 0.000002 94.391432 20.124054 -22.114693 -0.000006 -0.000017 -3.009682 -5.000236 -7.998772 0.000144 -8.360677 47.311447 9.012063 47.358056 112.177716 -2.265256 0.000003 0.000015 0.000000 84.422641 -5.634552 8.367721 -0.000003 -0.000009 3.000001 -5.000224 7.998775 -0.000163 -12.190886 -173.846838 5.299782 -179.999991 0.000005 -1.273005 151.255714 -6.359173 -2.805510 -0.000005 -0.000001 0.454013 68.695768 6.793576 2.409821 25.456965 -7.355613 -0.000001 -16.489043 175.164354 -0.339736 -0.000004 -0.000004 -1.085370 -26.264620 3.759301 1.760787 0.000000 0.000001 -0.373693 68.970253 -6.829093 -2.291385 25.456957 7.355619 -0.000003 
41.664196 -8.706093 117.734009 5.059025 1.367233 8.756165 -2.462062 -0.058969 0.323860 -0.912589 -0.125872 0.645715 0.732444 -0.118127 0.647174 -9.911137 3.618469 -2.559206 13.095149 -0.523178 -3.351441 -16.367809 -42.569813 -19.035455 65.591106 -120.269495 -2.135944 -0.000002 -0.000001 -0.000002 94.289682 20.052488 -21.972647 -0.000006 -0.000015 -3.009682 -5.000239 -7.998773 0.000143 -8.361890 47.344085 9.016148 47.635013 112.105671 -2.605917 0.000001 0.000015 0.000001 84.340986 -5.575711 8.292601 -0.000002 -0.000010 3.000003 -5.000229 7.998774 -0.000166 -12.284406 -173.926218 5.232870 -179.999991 0.000004 -1.268006 151.305711 -6.339303 -2.795571 -0.000006 -0.000001 0.452476 68.701547 6.793580 2.410468 25.456972 -7.355613 -0.000001 -16.585065 175.122635 -0.350693 -0.000004 -0.000004 -1.085100 -26.302609 3.758952 1.763349 -0.000001 0.000001 -0.374439 68.964167 -6.828838 -2.292411 25.456953 7.355619 -0.000005 
41.639996 -8.680030 117.636002 5.100852 1.406727 8.765886 -2.456942 -0.060001 0.321691 -0.902707 -0.127955 0.641346 0.742327 -0.120264 0.642832 -10.014886 3.618149 -2.564156 13.055977 -0.535491 -3.357233 -16.382880 -42.525622 -19.054068 65.655528 -120.340980 -2.039026 -0.000001 -0.000002 -0.000000 94.174109 19.968237 -21.808231 -0.000006 -0.000014 -3.009678 -5.000237 -7.998774 0.000141 -8.368666 47.382129 9.027673 47.919043 112.029309 -2.958403 -0.000002 0.000014 -0.000002 84.256852 -5.514351 8.214781 -0.000006 -0.000007 2.999999 -5.000228 7.998771 -0.000169 -12.376127 -174.009437 5.161739 -179.999991 0.000005 -1.264003 151.363850 -6.314599 -2.783904 -0.000002 -0.000001 0.450870 68.706082 6.793544 2.411182 25.456960 -7.355614 -0.000001 -16.677599 175.080875 -0.361281 -0.000004 -0.000004 -1.084761 -26.335681 3.758511 1.765527 -0.000001 0.000001 -0.375093 68.958812 -6.828594 -2.293495 25.456953 7.355621 -0.000005 
